<svg width="200" height="200" viewBox="0 0 200 200" fill="none" xmlns="http://www.w3.org/2000/svg">
<g clip-path="url(#clip0_1_5)">
<path opacity="0.96" fill-rule="evenodd" clip-rule="evenodd" d="M95.5 -0.5C101.833 -0.5 108.167 -0.5 114.5 -0.5C161.402 9.78948 189.735 38.4561 199.5 85.5C199.5 94.8333 199.5 104.167 199.5 113.5C189.939 160.727 161.606 189.394 114.5 199.5C104.5 199.5 94.5 199.5 84.5 199.5C37.3941 189.394 9.06074 160.727 -0.5 113.5C-0.5 104.167 -0.5 94.8333 -0.5 85.5C5.6558 50.8439 24.3225 25.3439 55.5 9C60.0794 7.42276 63.0794 8.92276 64.5 13.5C64 14.5 63.5 15.5 63 16.5C16.8143 43.2251 1.48092 82.2251 17 133.5C36.9203 175.548 70.087 193.715 116.5 188C156.946 177.552 180.779 151.719 188 110.5C190.598 67.8475 173.098 36.6808 135.5 17C125.887 12.9301 115.887 10.4301 105.5 9.5C105.666 16.5079 105.5 23.5079 105 30.5C104.535 31.9308 103.701 33.0975 102.5 34C66.9555 35.5445 45.4555 53.7112 38 88.5C34.7862 125.93 50.9529 150.43 86.5 162C118.652 166.342 142.152 154.175 157 125.5C168.369 94.1396 161.536 67.6396 136.5 46C131.414 43.0397 126.247 40.2064 121 37.5C119.079 29.925 121.912 27.425 129.5 30C161.594 46.676 176.094 73.176 173 109.5C166.581 144.919 145.747 166.086 110.5 173C69.9833 176.003 42.8166 158.503 29 120.5C20.9606 85.9461 30.7939 57.7794 58.5 36C69.0749 28.8639 80.7416 25.0306 93.5 24.5C93.3337 17.4921 93.5004 10.4921 94 3.5C94.4101 2.0993 94.9101 0.765972 95.5 -0.5Z" fill="#BD93F9"/>
<path opacity="0.936" fill-rule="evenodd" clip-rule="evenodd" d="M70.9152 45.1206C79.9019 44.2856 82.2353 47.7856 77.9152 55.6206C69.2169 56.3932 66.8836 52.8932 70.9152 45.1206Z" fill="#BD93F9"/>
</g>
<defs>
<clipPath id="clip0_1_5">
<rect width="200" height="200" fill="white"/>
</clipPath>
</defs>
</svg>
